<svg width="100" height="100" viewBox="0 0 100 100" fill="none" xmlns="http://www.w3.org/2000/svg">
    <!-- Building foundation -->
    <rect x="20" y="85" width="60" height="8" fill="currentColor" opacity="0.3"/>
    
    <!-- Main building structure -->
    <rect x="25" y="25" width="50" height="60" fill="none" stroke="currentColor" stroke-width="2"/>
    
    <!-- Roof -->
    <path d="M20 25 L50 10 L80 25 Z" fill="none" stroke="currentColor" stroke-width="2"/>
    <path d="M47 10 L53 10 L53 15 L47 15 Z" fill="none" stroke="currentColor" stroke-width="1.5"/>
    
    <!-- Floor divisions -->
    <line x1="25" y1="45" x2="75" y2="45" stroke="currentColor" stroke-width="1"/>
    <line x1="25" y1="65" x2="75" y2="65" stroke="currentColor" stroke-width="1"/>
    
    <!-- Windows - 3rd floor -->
    <rect x="32" y="30" width="8" height="10" fill="none" stroke="currentColor" stroke-width="1"/>
    <rect x="46" y="30" width="8" height="10" fill="none" stroke="currentColor" stroke-width="1"/>
    <rect x="60" y="30" width="8" height="10" fill="none" stroke="currentColor" stroke-width="1"/>
    
    <!-- Windows - 2nd floor -->
    <rect x="32" y="50" width="8" height="10" fill="none" stroke="currentColor" stroke-width="1"/>
    <rect x="46" y="50" width="8" height="10" fill="none" stroke="currentColor" stroke-width="1"/>
    <rect x="60" y="50" width="8" height="10" fill="none" stroke="currentColor" stroke-width="1"/>
    
    <!-- Windows and door - 1st floor -->
    <rect x="32" y="70" width="8" height="10" fill="none" stroke="currentColor" stroke-width="1"/>
    <rect x="60" y="70" width="8" height="10" fill="none" stroke="currentColor" stroke-width="1"/>
    
    <!-- Front door -->
    <rect x="46" y="72" width="8" height="13" fill="none" stroke="currentColor" stroke-width="1.5"/>
    <circle cx="52" cy="78" r="1" fill="currentColor"/>
    
    <!-- Window details (cross lines) -->
    <line x1="36" y1="30" x2="36" y2="40" stroke="currentColor" stroke-width="0.5"/>
    <line x1="32" y1="35" x2="40" y2="35" stroke="currentColor" stroke-width="0.5"/>
    <line x1="50" y1="30" x2="50" y2="40" stroke="currentColor" stroke-width="0.5"/>
    <line x1="46" y1="35" x2="54" y2="35" stroke="currentColor" stroke-width="0.5"/>
    <line x1="64" y1="30" x2="64" y2="40" stroke="currentColor" stroke-width="0.5"/>
    <line x1="60" y1="35" x2="68" y2="35" stroke="currentColor" stroke-width="0.5"/>
    
    <line x1="36" y1="50" x2="36" y2="60" stroke="currentColor" stroke-width="0.5"/>
    <line x1="32" y1="55" x2="40" y2="55" stroke="currentColor" stroke-width="0.5"/>
    <line x1="64" y1="50" x2="64" y2="60" stroke="currentColor" stroke-width="0.5"/>
    <line x1="60" y1="55" x2="68" y2="55" stroke="currentColor" stroke-width="0.5"/>
    
    <line x1="36" y1="70" x2="36" y2="80" stroke="currentColor" stroke-width="0.5"/>
    <line x1="32" y1="75" x2="40" y2="75" stroke="currentColor" stroke-width="0.5"/>
    <line x1="64" y1="70" x2="64" y2="80" stroke="currentColor" stroke-width="0.5"/>
    <line x1="60" y1="75" x2="68" y2="75" stroke="currentColor" stroke-width="0.5"/>
</svg>
