<svg fill="currentColor" viewBox="0 0 24 24" xmlns="http://www.w3.org/2000/svg">
    <path d="M12 10.8c-1.087-2.114-4.046-6.053-6.798-7.995C2.566.944 1.561 1.266.902 1.565.139 1.908 0 3.08 0 3.768c0 .69.378 5.65.624 6.479.815 2.736 3.713 3.66 6.383 3.364.136-.02.275-.039.415-.056-.138.022-.276.04-.415.056-2.67-.296-5.568.628-6.383 3.364C.378 17.6 0 22.56 0 23.25c0 .688.139 1.86.902 2.203.659.299 1.664.621 4.3-1.24 2.752-1.942 5.711-5.881 6.798-7.995C13.087 18.332 16.046 22.271 18.798 24.213c2.636 1.861 3.641 1.539 4.3 1.24.763-.343.902-1.515.902-2.203 0-.69-.378-5.65-.624-6.479-.815-2.736-3.713-3.66-6.383-3.364-.139.016-.277.034-.415.056.138-.017.276-.036.415-.056 2.67.296 5.568-.628 6.383-3.364.246-.829.624-5.789.624-6.479 0-.688-.139-1.86-.902-2.203-.659-.299-1.664-.621-4.3 1.24-2.752 1.942-5.711 5.881-6.798 7.995z"/>
</svg>
