<svg fill="currentColor" viewBox="0 0 24 24" xmlns="http://www.w3.org/2000/svg">
    <path d="M12 2.5c-2.4 0-4.8.8-6.7 2.3C3.6 6.1 2.5 8.2 2.5 10.5c0 1.8.6 3.5 1.7 4.9.6.8 1.4 1.4 2.3 1.8.4.2.8.3 1.2.3.2 0 .4 0 .6-.1.8-.3 1.4-1 1.6-1.9.1-.4.1-.8 0-1.2-.2-.8-.7-1.4-1.4-1.7-.3-.1-.6-.2-.9-.2-.2 0-.4.1-.5.2-.1.1-.2.2-.2.4 0 .1.1.2.2.3.4.3.7.7.8 1.2.1.3.1.6 0 .9-.1.3-.3.5-.5.6-.1 0-.2.1-.3.1-.2 0-.4-.1-.6-.2-.5-.3-1-.7-1.3-1.2-.7-.9-1.1-2-1.1-3.1 0-1.7.8-3.3 2.1-4.4C7.8 3.6 9.9 2.5 12 2.5s4.2 1.1 5.8 2.8c1.3 1.1 2.1 2.7 2.1 4.4 0 1.1-.4 2.2-1.1 3.1-.3.5-.8.9-1.3 1.2-.2.1-.4.2-.6.2-.1 0-.2 0-.3-.1-.2-.1-.4-.3-.5-.6-.1-.3-.1-.6 0-.9.1-.5.4-.9.8-1.2.1-.1.2-.2.2-.3 0-.2-.1-.3-.2-.4-.1-.1-.3-.2-.5-.2-.3 0-.6.1-.9.2-.7.3-1.2.9-1.4 1.7-.1.4-.1.8 0 1.2.2.9.8 1.6 1.6 1.9.2.1.4.1.6.1.4 0 .8-.1 1.2-.3.9-.4 1.7-1 2.3-1.8 1.1-1.4 1.7-3.1 1.7-4.9 0-2.3-1.1-4.4-2.8-5.7C16.8 3.3 14.4 2.5 12 2.5z"/>
</svg>
